<?xml version="1.0" standalone="no"?>
<!DOCTYPE svg PUBLIC "-//W3C//DTD SVG 20010904//EN"
 "http://www.w3.org/TR/2001/REC-SVG-20010904/DTD/svg10.dtd">
<svg version="1.0" xmlns="http://www.w3.org/2000/svg"
 width="481.000000pt" height="491.000000pt" viewBox="0 0 481.000000 491.000000"
 preserveAspectRatio="xMidYMid meet">

<g transform="translate(0.000000,491.000000) scale(0.100000,-0.100000)"
fill="#000000" stroke="none">
<path d="M942 3250 c0 -14 2 -19 5 -12 2 6 2 18 0 25 -3 6 -5 1 -5 -13z"/>
<path d="M3106 3225 c-9 -13 -16 -29 -16 -35 0 -5 -7 -10 -15 -10 -9 0 -15 -9
-15 -25 0 -14 -5 -25 -11 -25 -6 0 -9 7 -5 15 3 8 1 15 -4 15 -6 0 -10 -7 -10
-15 0 -8 -4 -15 -10 -15 -5 0 -10 -6 -10 -14 0 -7 -9 -16 -21 -19 -12 -3 -18
-10 -14 -16 3 -6 0 -11 -7 -11 -18 0 -85 -73 -81 -87 2 -6 -1 -14 -6 -18 -6
-3 -11 1 -11 10 0 11 -12 3 -34 -24 -18 -22 -36 -38 -39 -35 -3 3 -13 -8 -22
-25 -8 -17 -20 -31 -26 -31 -6 0 -9 -6 -6 -14 4 -10 0 -12 -14 -9 -15 4 -22 0
-26 -16 -4 -15 -12 -21 -28 -19 -17 2 -46 -19 -111 -82 -49 -47 -88 -88 -86
-92 1 -4 -5 -5 -12 -2 -8 3 -24 0 -36 -6 -40 -21 -104 -14 -167 19 -32 17 -54
31 -49 31 5 0 -22 31 -60 70 -38 38 -78 70 -88 70 -11 0 -38 20 -60 45 -34 37
-48 46 -77 47 -35 1 -36 2 -29 29 10 34 -4 48 -43 44 -22 -3 -27 0 -23 11 5
12 1 14 -17 9 -19 -5 -20 -5 -4 5 14 9 22 9 33 -1 8 -6 17 -9 21 -5 3 3 1 6
-6 6 -8 0 -11 7 -7 15 3 8 2 14 -2 13 -4 -1 -17 1 -28 5 -21 7 -45 0 -90 -26
l-21 -12 23 -18 c12 -9 28 -17 33 -17 6 0 11 -7 11 -15 0 -8 6 -15 14 -15 8 0
16 -7 20 -15 9 -24 28 -18 21 6 -6 19 -5 20 8 8 10 -10 12 -18 5 -26 -7 -8 -5
-19 6 -35 23 -32 18 -124 -6 -116 -6 2 -36 -21 -67 -52 -32 -30 -78 -73 -103
-95 -26 -22 -83 -75 -128 -118 -46 -43 -88 -76 -95 -73 -7 2 -12 -3 -11 -11 0
-9 -5 -18 -11 -20 -9 -3 -13 5 -13 22 0 23 -2 26 -15 15 -13 -10 -15 -9 -15 8
0 12 -23 44 -53 74 -62 62 -137 161 -137 182 0 7 -7 16 -15 20 -8 3 -19 17
-25 30 -5 13 -24 46 -43 73 -19 26 -38 58 -41 70 -4 11 -13 24 -21 27 -8 3
-15 13 -15 21 0 19 -57 143 -76 165 -7 8 -15 40 -17 70 -2 30 -2 -3 0 -75 8
-253 89 -502 232 -715 77 -116 97 -137 112 -122 11 10 20 6 46 -20 31 -30 33
-30 33 -10 0 15 16 31 53 55 47 30 247 224 255 247 2 6 10 10 18 10 8 0 14 4
14 9 0 5 27 37 60 70 49 50 59 66 54 85 -3 13 -1 27 5 30 7 5 11 -2 11 -17 0
-23 2 -24 35 -17 20 4 38 4 41 -1 3 -5 17 0 31 11 28 22 48 27 37 8 -4 -7 -3
-8 4 -4 12 7 5 36 -8 36 -4 0 -19 -9 -34 -21 -27 -21 -36 -14 -14 10 9 10 9
12 1 7 -6 -3 -15 -1 -19 5 -4 8 -3 9 4 5 7 -4 12 -2 12 4 0 7 5 8 13 3 16 -10
57 -11 57 -1 0 11 21 10 39 -1 7 -5 10 -14 6 -20 -5 -9 -10 -9 -21 0 -8 6 -17
9 -21 6 -8 -8 16 -37 31 -37 14 1 51 50 36 50 -5 0 -2 8 8 18 12 12 20 14 28
7 9 -7 8 -12 -2 -18 -21 -12 -17 -29 5 -22 15 4 22 -3 35 -35 9 -22 21 -40 26
-40 6 0 25 -16 42 -36 18 -20 37 -33 44 -30 44 18 49 19 29 3 -19 -15 -19 -16
17 -31 50 -21 80 -20 135 6 39 18 43 23 27 29 -17 7 -17 8 -1 8 10 1 20 8 23
16 4 8 12 15 19 15 7 0 16 6 18 13 4 10 6 10 6 0 1 -7 8 -13 16 -13 12 0 13 4
5 19 -15 29 -13 30 22 20 41 -11 38 -12 38 6 0 8 -7 15 -15 15 -8 0 -15 5 -15
10 0 6 7 10 15 10 8 0 15 -4 15 -10 0 -16 36 -11 51 7 12 15 12 16 -4 10 -11
-4 -28 -1 -40 8 -20 14 -13 21 16 16 4 -1 12 11 18 26 8 21 12 24 19 14 4 -8
15 -11 24 -8 9 4 16 2 16 -4 0 -5 -7 -12 -15 -15 -32 -13 -13 -24 35 -21 46 2
48 2 33 -15 -20 -22 0 -24 21 -2 9 9 16 11 16 4 0 -6 5 -8 10 -5 6 3 10 -2 10
-12 0 -16 1 -16 18 0 15 16 15 19 2 27 -13 9 -13 10 0 10 8 0 22 -5 30 -10 13
-9 13 -12 -2 -24 -21 -15 -23 -28 -5 -25 26 3 39 -1 35 -13 -5 -14 15 -38 31
-38 6 0 11 5 11 10 0 6 -5 10 -12 10 -6 0 -8 3 -4 7 11 11 36 -27 35 -51 -1
-18 -2 -19 -6 -3 -3 10 -10 16 -17 14 -7 -3 -25 5 -40 18 -17 15 -22 25 -14
27 8 3 9 6 1 11 -6 4 -14 0 -17 -9 -8 -20 44 -70 83 -79 17 -4 45 -24 66 -48
20 -23 76 -83 123 -133 182 -190 202 -212 202 -223 0 -22 19 -10 64 41 l46 52
-163 157 c-90 86 -185 175 -212 196 -28 22 -56 47 -63 55 -7 9 -21 14 -32 11
-11 -3 -20 0 -20 6 0 6 5 11 11 11 8 0 8 5 -1 15 -7 8 -19 15 -26 15 -8 0 -13
5 -12 11 2 6 -3 14 -11 17 -10 3 -12 0 -8 -12 5 -11 1 -16 -12 -16 -14 0 -18
5 -14 20 3 11 10 20 15 20 6 0 4 7 -3 16 -16 19 -22 54 -10 54 14 0 21 43 10
56 -11 13 -3 54 9 54 4 0 15 15 25 33 10 18 28 37 40 42 12 6 20 13 17 17 -3
3 19 25 48 48 28 23 52 46 52 52 0 12 28 40 53 53 31 15 33 35 4 35 -15 0 -31
-9 -41 -25z m-1326 -225 c0 -20 -5 -25 -20 -22 -23 6 -26 12 -10 22 20 13 30
12 30 0z m1075 -76 c-8 -9 -15 -24 -15 -34 0 -23 -13 -32 -34 -24 -24 9 -19
29 9 42 14 7 28 19 31 27 4 8 10 12 15 9 5 -3 2 -12 -6 -20z m-890 -54 c3 -5
-1 -10 -9 -10 -9 0 -16 5 -16 10 0 6 4 10 9 10 6 0 13 -4 16 -10z m-40 -38
c-7 -2 -15 -13 -19 -25 -3 -11 -8 -18 -12 -15 -3 4 0 22 7 42 11 31 14 33 25
18 10 -14 10 -18 -1 -20z m90 -2 c3 -5 -6 -12 -20 -16 -29 -7 -41 -1 -30 15 8
14 42 14 50 1z m855 -10 c0 -5 -9 -10 -21 -10 -11 0 -17 5 -14 10 3 6 13 10
21 10 8 0 14 -4 14 -10z m-685 -142 c-19 -11 -30 -5 -21 11 4 6 14 7 22 4 15
-5 14 -7 -1 -15z m159 -90 c-3 -4 0 -8 7 -8 7 0 10 -3 6 -6 -3 -3 -20 -3 -38
1 -17 4 -27 10 -21 14 15 9 52 8 46 -1z m95 8 c-2 -2 -15 -9 -29 -16 -23 -12
-24 -12 -11 3 7 10 20 17 29 17 8 0 13 -2 11 -4z"/>
<path d="M1920 2931 c0 -10 19 -25 25 -20 1 2 -3 10 -11 17 -8 7 -14 8 -14 3z"/>
<path d="M2517 2633 c-4 -3 -7 -11 -7 -17 0 -6 5 -5 12 2 6 6 9 14 7 17 -3 3
-9 2 -12 -2z"/>
<path d="M2275 2420 c3 -4 14 -10 25 -13 11 -3 18 -2 15 3 -3 4 -14 10 -25 13
-11 3 -18 2 -15 -3z"/>
<path d="M2400 2416 c-30 -7 -50 -15 -44 -19 12 -7 84 10 99 24 5 5 7 8 5 8
-3 -1 -30 -7 -60 -13z"/>
<path d="M1550 2285 c-1 -5 -2 -13 -1 -17 0 -5 -5 -8 -13 -8 -7 0 -30 -18 -49
-39 -41 -46 -71 -58 -95 -40 -9 7 -5 0 11 -17 15 -17 27 -37 27 -45 0 -35 220
-193 358 -256 195 -90 331 -118 582 -118 203 0 271 9 423 56 71 22 89 34 34
24 -99 -19 -517 54 -662 115 -11 4 -36 15 -55 23 -19 8 -46 18 -60 22 -38 11
-130 57 -130 65 0 4 -18 12 -40 19 -22 6 -40 15 -40 19 0 5 -18 16 -40 26 -22
10 -40 22 -40 27 0 5 -5 9 -10 9 -6 0 -47 25 -91 55 -44 30 -84 55 -89 55 -5
0 -11 8 -13 18 -3 9 -6 13 -7 7z"/>
<path d="M2894 1844 c-18 -14 -18 -14 6 -3 31 14 36 19 24 19 -6 0 -19 -7 -30
-16z"/>
<path d="M981 1223 c-24 -22 -29 -34 -24 -55 5 -26 33 -40 33 -17 0 5 5 7 10
4 6 -4 8 -11 5 -16 -4 -5 2 -6 12 -2 16 6 16 5 4 -10 -11 -14 -17 -15 -30 -6
-9 7 8 -10 38 -37 61 -56 64 -78 14 -107 -30 -17 -33 -17 -58 -1 -28 18 -41
14 -32 -11 4 -8 17 -15 31 -15 13 0 32 -3 42 -7 12 -4 15 -3 10 5 -4 8 3 16
18 22 14 5 26 14 26 20 0 6 5 8 12 4 8 -5 4 -13 -11 -26 -13 -10 -18 -18 -12
-18 5 0 19 9 29 21 21 22 19 57 -4 66 -18 7 -18 23 0 23 8 0 19 -12 24 -27 6
-16 11 -21 11 -13 1 9 -6 26 -15 38 -12 18 -19 20 -29 12 -17 -14 -35 -5 -35
17 0 10 6 13 18 9 9 -4 -3 13 -27 38 -43 44 -44 45 -27 70 15 24 15 25 -1 19
-15 -5 -16 -3 -5 8 9 10 15 10 24 1 15 -15 32 -16 23 -2 -3 6 1 10 10 10 9 0
13 -4 10 -10 -4 -6 1 -7 11 -3 12 4 15 3 10 -5 -5 -8 -2 -10 10 -5 14 5 13 8
-7 19 -40 22 -85 17 -118 -13z m19 -7 c0 -11 -29 -69 -30 -59 0 6 -3 19 -7 29
-4 12 -3 15 5 10 7 -4 12 -1 12 8 0 9 5 16 10 16 6 0 10 -2 10 -4z m44 -101
c4 -10 -1 -15 -16 -15 -17 0 -18 2 -8 15 7 8 14 15 15 15 2 0 5 -7 9 -15z"/>
<path d="M1315 1243 c-62 -7 -67 -23 -7 -23 40 0 52 4 52 15 0 8 -1 14 -2 13
-2 -1 -21 -3 -43 -5z"/>
<path d="M1440 1217 c0 -16 3 -26 8 -24 4 2 16 7 27 11 16 6 17 9 5 16 -9 5
-2 8 21 7 19 -1 37 -6 41 -12 5 -6 8 -5 8 3 0 9 7 11 23 7 17 -6 20 -5 10 5
-7 8 -39 13 -78 14 -65 1 -65 1 -65 -27z"/>
<path d="M1715 1240 c3 -5 8 -10 11 -10 2 0 4 5 4 10 0 6 -5 10 -11 10 -5 0
-7 -4 -4 -10z"/>
<path d="M1882 1193 c-15 -39 -18 -62 -11 -74 12 -23 11 -29 -1 -29 -5 0 -10
8 -11 18 0 14 -2 14 -9 -3 -5 -11 -9 -29 -9 -40 l0 -20 10 20 c7 15 8 12 4
-14 -7 -44 -2 -38 24 27 12 29 16 50 10 46 -14 -8 -5 66 9 75 7 6 15 51 8 51
-2 0 -13 -25 -24 -57z"/>
<path d="M1917 1237 c-3 -8 -2 -19 3 -26 5 -10 9 -8 14 4 3 9 6 21 6 26 0 14
-17 11 -23 -4z"/>
<path d="M2386 1228 c-4 -16 5 -40 29 -80 35 -57 42 -74 26 -64 -10 7 -61 -67
-66 -96 -3 -15 -1 -17 9 -9 7 6 15 8 18 5 3 -3 9 0 14 7 4 7 3 10 -4 5 -13 -8
-26 10 -17 24 5 8 12 7 23 -2 14 -10 15 -10 5 2 -15 16 -17 34 -4 25 11 -6 51
47 51 68 0 9 -4 19 -10 22 -5 3 -10 11 -10 16 0 6 5 7 11 3 6 -3 3 5 -6 20
-23 34 -26 33 -18 -6 6 -29 5 -31 -9 -18 -8 9 -21 26 -28 39 -11 21 -10 26 4
36 8 7 13 15 9 18 -12 12 -21 7 -27 -15z m74 -116 c0 -15 -2 -15 -10 -2 -13
20 -13 33 0 25 6 -3 10 -14 10 -23z m-29 -55 c-10 -9 -11 -8 -5 6 3 10 9 15
12 12 3 -3 0 -11 -7 -18z"/>
<path d="M2510 1207 c-17 -32 -21 -48 -13 -61 9 -17 11 -17 16 -2 4 10 3 15
-3 11 -6 -3 -10 1 -10 10 0 9 5 13 10 10 6 -3 10 -1 10 5 0 6 5 8 11 4 8 -5 8
-1 0 14 -7 12 -7 23 -2 27 5 3 11 0 14 -7 2 -7 3 -5 1 5 -2 13 2 17 12 13 8
-3 14 -1 14 4 0 6 -8 10 -19 10 -11 0 -27 -16 -41 -43z"/>
<path d="M2678 1243 c-14 -3 -18 -14 -16 -41 l1 -37 4 34 c3 22 7 30 12 22 6
-9 10 -7 14 8 3 12 4 20 4 20 -1 -1 -10 -3 -19 -6z"/>
<path d="M2710 1237 c0 -8 7 -14 15 -14 11 0 12 4 4 14 -6 7 -13 13 -15 13 -2
0 -4 -6 -4 -13z"/>
<path d="M2927 1243 c-10 -9 -9 -263 1 -263 4 0 7 61 7 135 0 74 0 135 -1 135
0 0 -4 -3 -7 -7z"/>
<path d="M3297 1237 c-3 -8 1 -14 9 -14 16 0 19 13 5 21 -5 3 -11 0 -14 -7z"/>
<path d="M3330 1238 c0 -9 5 -20 10 -23 13 -8 13 5 0 25 -8 13 -10 13 -10 -2z"/>
<path d="M3496 1236 c6 -16 74 -28 88 -15 5 5 -2 13 -18 19 -33 12 -60 12 -31
0 19 -8 19 -9 -2 -9 -13 -1 -23 4 -23 9 0 6 -4 10 -10 10 -5 0 -7 -6 -4 -14z"/>
<path d="M3703 1237 c-16 -9 -20 -16 -13 -27 8 -13 10 -12 10 3 0 10 5 15 10
12 7 -4 6 -13 -1 -26 -7 -14 -7 -24 0 -33 11 -13 5 -26 -11 -26 -5 0 -6 5 -2
12 5 7 3 8 -6 3 -9 -5 -10 -2 -6 11 3 11 2 25 -3 32 -5 9 -8 1 -7 -21 1 -24 9
-42 25 -56 26 -23 41 -27 41 -10 0 5 -4 8 -9 5 -5 -3 -12 1 -15 10 -4 12 -2
15 9 10 19 -7 19 -1 0 27 -9 14 -11 27 -6 36 5 8 7 20 4 27 -2 7 4 14 14 17
12 3 13 5 3 5 -8 1 -25 -4 -37 -11z"/>
<path d="M3753 1236 c-10 -11 -5 -15 25 -19 45 -5 53 0 28 19 -24 17 -37 17
-53 0z"/>
<path d="M1200 1105 c0 -74 3 -135 8 -135 4 0 6 59 6 130 -1 80 2 130 8 130 7
0 8 -21 4 -54 -7 -53 5 -84 19 -49 3 10 1 19 -4 21 -6 2 -11 8 -11 13 0 6 5 7
10 4 7 -4 10 8 9 34 -3 35 -6 41 -26 41 -23 0 -23 -1 -23 -135z"/>
<path d="M1680 1228 c0 -7 9 -33 20 -57 11 -24 20 -49 20 -57 0 -8 5 -14 11
-14 5 0 8 -4 4 -9 -3 -5 5 -34 18 -63 13 -29 27 -61 30 -71 6 -15 10 -16 27
-7 11 6 18 15 15 21 -4 5 -1 9 6 9 7 0 5 8 -6 20 -14 16 -21 18 -27 8 -6 -9
-7 -5 -3 9 3 13 1 31 -5 40 -10 16 -11 16 -7 -4 3 -13 -1 -24 -10 -28 -12 -4
-14 0 -10 15 3 11 1 18 -4 14 -5 -3 -9 7 -9 21 0 14 -11 47 -25 73 -14 26 -25
57 -25 69 0 13 -4 23 -10 23 -5 0 -10 -6 -10 -12z m140 -238 c0 -5 -10 -10
-22 -10 -19 0 -20 2 -8 10 19 13 30 13 30 0z"/>
<path d="M2030 1163 c-1 -43 -2 -89 -2 -103 -1 -14 2 -42 6 -62 7 -33 6 -37
-16 -41 -21 -4 -20 -4 5 -6 l27 -1 0 145 c0 85 -4 145 -10 145 -5 0 -10 -35
-10 -77z"/>
<path d="M2130 1095 l0 -145 75 0 c65 0 75 2 75 18 0 13 -2 14 -9 3 -7 -11 -9
-11 -14 0 -4 10 -6 10 -6 2 -1 -9 -19 -13 -55 -13 l-54 0 1 133 c0 80 5 135
11 139 7 5 4 8 -6 8 -16 0 -18 -14 -18 -145z"/>
<path d="M2270 1230 c0 -5 5 -10 10 -10 6 0 10 5 10 10 0 6 -4 10 -10 10 -5 0
-10 -4 -10 -10z"/>
<path d="M2756 1227 c7 -18 44 -30 41 -13 -1 6 7 9 18 8 11 -2 17 -1 13 3 -4
4 -23 9 -42 12 -29 4 -35 2 -30 -10z"/>
<path d="M3056 1228 c5 -8 2 -9 -9 -5 -22 8 -21 1 3 -23 23 -23 39 -27 21 -6
-6 7 -9 21 -5 30 3 9 1 16 -6 16 -6 0 -8 -5 -4 -12z"/>
<path d="M3453 1232 c-8 -5 -9 -13 -3 -22 8 -13 10 -12 10 3 0 10 4 16 10 12
5 -3 7 -13 4 -23 -5 -14 -4 -14 4 -3 10 14 6 41 -7 41 -3 0 -11 -4 -18 -8z"/>
<path d="M1590 1206 c-5 -15 -10 -38 -10 -51 0 -13 -4 -27 -10 -30 -5 -3 -10
-11 -10 -17 0 -7 6 -6 15 2 11 9 15 9 15 1 0 -16 -43 -31 -51 -18 -4 5 -14 7
-24 4 -18 -8 -11 -27 10 -27 7 0 17 -9 20 -20 3 -11 14 -24 24 -29 15 -8 17
-6 13 20 -2 16 -8 29 -13 29 -5 0 -5 -7 -2 -17 4 -11 3 -14 -5 -9 -20 12 -13
34 13 40 36 9 76 96 44 96 -6 0 -9 -7 -5 -15 3 -8 1 -15 -4 -15 -5 0 -7 -8 -3
-17 5 -14 3 -15 -6 -7 -7 6 -11 24 -9 40 2 22 7 28 22 26 18 -3 18 -2 6 15 -8
10 -15 20 -17 22 -1 2 -7 -8 -13 -23z"/>
<path d="M2004 1110 c0 -69 1 -97 3 -62 2 34 2 90 0 125 -2 34 -3 6 -3 -63z"/>
<path d="M2172 1200 c0 -19 2 -27 5 -17 2 9 2 25 0 35 -3 9 -5 1 -5 -18z"/>
<path d="M2998 1223 c7 -3 16 -2 19 1 4 3 -2 6 -13 5 -11 0 -14 -3 -6 -6z"/>
<path d="M3081 1214 c0 -11 3 -14 6 -6 3 7 2 16 -1 19 -3 4 -6 -2 -5 -13z"/>
<path d="M3220 1220 c0 -6 7 -10 15 -10 8 0 15 2 15 4 0 2 -7 6 -15 10 -8 3
-15 1 -15 -4z"/>
<path d="M1715 1195 c4 -16 12 -37 19 -45 6 -8 18 -27 26 -42 20 -42 22 -27 4
28 -26 76 -35 95 -30 59 l5 -30 -15 30 -15 30 6 -30z"/>
<path d="M2410 1205 c0 -8 2 -15 4 -15 2 0 6 7 10 15 3 8 1 15 -4 15 -6 0 -10
-7 -10 -15z"/>
<path d="M3197 1213 c-10 -10 -8 -33 2 -33 6 0 9 9 8 20 -1 23 -1 22 -10 13z"/>
<path d="M2833 1190 c1 -14 6 -28 11 -31 12 -10 -3 -31 -16 -23 -7 5 -9 1 -5
-9 3 -8 -1 -21 -10 -29 -14 -11 -15 -10 -8 11 7 22 7 23 -12 4 -16 -16 -17
-19 -3 -25 18 -8 70 44 70 70 0 10 -7 27 -15 38 -14 18 -15 18 -12 -6z"/>
<path d="M3097 1188 c-3 -12 -3 -28 1 -35 5 -8 8 0 9 22 1 40 -2 44 -10 13z"/>
<path d="M3435 1191 c5 -16 4 -21 -4 -17 -7 5 -9 1 -4 -11 6 -18 123 -134 123
-123 0 4 -9 15 -20 25 -11 10 -17 22 -13 28 3 6 1 7 -5 3 -7 -4 -12 -3 -12 3
0 5 4 12 9 15 11 7 43 -28 34 -38 -4 -4 1 -4 10 0 16 6 14 11 -17 36 -20 16
-43 39 -52 51 l-16 22 7 -22 c4 -14 2 -23 -4 -23 -6 0 -11 6 -11 13 0 8 -4 7
-11 -3 -8 -12 -9 -10 -5 10 3 14 1 32 -5 40 -8 11 -9 9 -4 -9z m71 -64 c12
-12 -26 -14 -42 -2 -16 11 -15 12 10 10 15 -2 30 -5 32 -8z"/>
<path d="M2811 1184 c0 -11 3 -14 6 -6 3 7 2 16 -1 19 -3 4 -6 -2 -5 -13z"/>
<path d="M2961 1184 c0 -11 3 -14 6 -6 3 7 2 16 -1 19 -3 4 -6 -2 -5 -13z"/>
<path d="M3226 1171 c5 -23 2 -30 -12 -34 -17 -4 -17 -5 -1 -6 9 0 17 -5 17
-11 0 -5 3 -10 8 -10 10 0 2 79 -9 86 -5 3 -6 -8 -3 -25z"/>
<path d="M1906 1175 c-3 -9 -6 -22 -5 -28 0 -7 5 -1 10 12 5 13 8 26 5 28 -2
2 -6 -3 -10 -12z"/>
<path d="M2701 1174 c0 -11 3 -14 6 -6 3 7 2 16 -1 19 -3 4 -6 -2 -5 -13z"/>
<path d="M1441 1075 c1 -98 9 -126 23 -89 3 9 6 31 6 50 0 21 4 33 10 29 6 -3
10 5 10 19 0 14 -5 28 -12 32 -8 5 -9 2 -5 -11 4 -9 3 -23 -2 -29 -5 -6 -11
-29 -14 -51 -2 -22 -3 4 -2 58 1 54 -2 97 -7 97 -5 0 -8 -46 -7 -105z"/>
<path d="M2681 1164 c0 -11 3 -14 6 -6 3 7 2 16 -1 19 -3 4 -6 -2 -5 -13z"/>
<path d="M3190 1160 c0 -5 7 -7 15 -4 8 4 15 8 15 10 0 2 -7 4 -15 4 -8 0 -15
-4 -15 -10z"/>
<path d="M2661 1068 c0 -49 2 -88 7 -88 4 0 6 28 4 62 -5 107 -9 117 -11 26z"/>
<path d="M2166 1125 c4 -8 10 -15 15 -15 4 0 6 7 3 15 -4 8 -10 15 -15 15 -4
0 -6 -7 -3 -15z"/>
<path d="M3085 1128 c4 -11 2 -18 -4 -18 -6 0 -11 -5 -11 -12 0 -8 6 -6 17 5
14 14 15 19 4 29 -10 11 -11 10 -6 -4z"/>
<path d="M3758 1120 c13 -16 16 -31 5 -29 -23 4 -24 -3 -6 -23 38 -41 34 -82
-9 -95 -34 -11 -30 -11 63 -4 4 1 10 8 13 17 3 8 2 12 -4 9 -6 -3 -10 -2 -10
4 0 5 8 15 18 20 9 6 12 11 7 11 -6 0 -16 -5 -23 -12 -9 -9 -13 -7 -18 8 -4
10 -13 26 -21 36 -10 11 -11 18 -4 23 17 10 31 -4 32 -33 1 -20 3 -22 6 -8 4
15 7 16 14 5 5 -8 9 -9 9 -4 -1 13 -18 34 -55 65 -17 14 -24 18 -17 10z m39
-142 c-3 -8 -6 -5 -6 6 -1 11 2 17 5 13 3 -3 4 -12 1 -19z"/>
<path d="M1253 1105 c-7 -8 -13 -20 -13 -27 0 -9 -3 -9 -10 2 -8 11 -10 0 -8
-38 4 -68 22 -72 26 -5 2 29 9 56 17 63 11 9 15 9 15 1 0 -6 16 -11 35 -11 24
0 35 5 35 15 0 20 -80 20 -97 0z m70 -2 c-7 -2 -19 -2 -25 0 -7 3 -2 5 12 5
14 0 19 -2 13 -5z m-86 -100 c-3 -10 -5 -4 -5 12 0 17 2 24 5 18 2 -7 2 -21 0
-30z"/>
<path d="M2200 1110 c0 -5 -10 -10 -22 -10 -17 0 -19 -3 -9 -9 11 -7 11 -9 0
-14 -8 -3 -9 -6 -3 -6 5 -1 20 8 32 19 22 21 37 27 27 10 -4 -6 9 -10 32 -9
37 1 37 2 8 9 l-30 7 30 5 c23 4 19 5 -17 7 -27 0 -48 -3 -48 -9z"/>
<path d="M3190 1095 c0 -14 4 -25 10 -25 5 0 7 7 3 16 -3 9 0 20 8 25 11 7 11
9 -3 9 -13 0 -18 -8 -18 -25z"/>
<path d="M3260 1111 c0 -5 -12 -12 -27 -14 -27 -4 -27 -4 3 -6 20 0 34 5 38
14 3 8 1 15 -4 15 -6 0 -10 -4 -10 -9z"/>
<path d="M3286 1105 c-3 -8 -1 -15 4 -15 6 0 10 5 10 10 0 6 8 10 18 10 14 0
15 -2 2 -10 -12 -8 -11 -10 8 -10 13 0 22 6 22 15 0 10 -10 15 -29 15 -16 0
-31 -6 -35 -15z"/>
<path d="M2967 1091 c3 -12 11 -17 19 -14 8 3 14 6 12 7 -2 1 -11 7 -20 14
-14 11 -16 10 -11 -7z"/>
<path d="M3021 1101 c-12 -8 -11 -17 9 -54 13 -25 28 -43 33 -40 5 3 3 9 -4
14 -10 6 -11 11 -2 20 15 15 29 -27 15 -44 -7 -8 -6 -20 2 -35 12 -22 14 -23
29 -7 11 11 17 12 17 4 0 -7 3 -9 7 -5 5 4 1 13 -7 19 -8 7 -16 17 -17 22 -1
6 -11 27 -21 47 -18 35 -20 36 -26 15 -5 -18 -8 -19 -15 -7 -7 10 -5 20 5 31
7 8 14 19 14 22 0 10 -22 8 -39 -2z m19 -16 c-7 -9 -15 -13 -19 -10 -3 3 1 10
9 15 21 14 24 12 10 -5z m57 -105 c1 -11 -2 -20 -7 -20 -10 0 -20 26 -13 34
12 11 19 6 20 -14z"/>
<path d="M2486 1084 c-11 -7 -16 -17 -11 -21 4 -5 10 -2 12 5 3 6 9 12 14 12
6 0 8 -4 5 -8 -2 -4 4 -14 15 -20 20 -13 20 -12 3 15 -10 15 -18 29 -18 30 -1
1 -10 -5 -20 -13z"/>
<path d="M3233 1035 c0 -27 2 -38 4 -22 2 15 2 37 0 50 -2 12 -4 0 -4 -28z"/>
<path d="M3561 1054 c0 -11 3 -14 6 -6 3 7 2 16 -1 19 -3 4 -6 -2 -5 -13z"/>
<path d="M2962 1035 c0 -16 2 -22 5 -12 2 9 2 23 0 30 -3 6 -5 -1 -5 -18z"/>
<path d="M1590 1046 c0 -4 5 -16 11 -27 6 -12 8 -28 4 -36 -5 -14 -7 -14 -20
3 -14 17 -14 17 -4 -8 9 -21 19 -28 40 -28 l28 0 -26 48 c-30 54 -33 58 -33
48z m30 -76 c0 -5 -5 -10 -11 -10 -5 0 -7 5 -4 10 3 6 8 10 11 10 2 0 4 -4 4
-10z"/>
<path d="M2485 1040 c3 -5 8 -10 11 -10 2 0 4 5 4 10 0 6 -5 10 -11 10 -5 0
-7 -4 -4 -10z"/>
<path d="M1820 1031 c0 -6 5 -13 10 -16 6 -3 10 1 10 9 0 9 -4 16 -10 16 -5 0
-10 -4 -10 -9z"/>
<path d="M2541 1018 c-1 -21 -12 -23 -30 -5 -7 6 -3 -5 9 -25 16 -27 29 -38
46 -38 17 0 22 4 18 15 -4 8 -10 15 -16 15 -5 0 -6 5 -3 10 3 6 2 10 -4 10 -5
0 -12 8 -14 18 -4 16 -5 16 -6 0z m23 -50 c7 -5 5 -8 -5 -8 -18 0 -32 24 -21
35 4 3 8 0 11 -7 2 -7 9 -16 15 -20z"/>
<path d="M3542 999 c-7 -10 -23 -21 -37 -25 -14 -3 -22 -10 -19 -15 6 -10 45
9 57 28 4 6 17 10 28 8 12 -2 19 0 17 7 -7 19 -34 17 -46 -3z"/>
<path d="M1481 994 c0 -11 3 -14 6 -6 3 7 2 16 -1 19 -3 4 -6 -2 -5 -13z"/>
<path d="M2170 980 c0 -5 5 -10 11 -10 5 0 7 5 4 10 -3 6 -8 10 -11 10 -2 0
-4 -4 -4 -10z"/>
<path d="M3199 988 c-11 -37 -9 -38 82 -38 65 0 89 3 89 13 0 8 -17 12 -50 12
-27 0 -50 -4 -50 -8 0 -5 -15 -7 -32 -5 -20 2 -32 8 -30 16 2 10 -6 19 -9 10z"/>
<path d="M3425 979 c-4 -6 -5 -12 -2 -15 2 -3 7 2 10 11 7 17 1 20 -8 4z"/>
<path d="M3664 978 c-8 -12 14 -28 36 -27 9 1 6 4 -5 7 -20 5 -20 5 -1 12 19
6 19 7 -2 12 -12 4 -25 2 -28 -4z"/>
<path d="M1265 971 c-6 -5 -23 -11 -40 -14 -16 -2 9 -5 58 -6 71 -1 87 2 87
14 0 11 -12 15 -48 15 -26 0 -52 -4 -57 -9z"/>
<path d="M2008 973 c7 -3 16 -2 19 1 4 3 -2 6 -13 5 -11 0 -14 -3 -6 -6z"/>
<path d="M2218 973 c7 -3 16 -2 19 1 4 3 -2 6 -13 5 -11 0 -14 -3 -6 -6z"/>
<path d="M2296 971 c-4 -7 -5 -15 -2 -18 9 -9 19 4 14 18 -4 11 -6 11 -12 0z"/>
<path d="M2950 971 c0 -5 -8 -12 -17 -14 -10 -3 -7 -4 8 -4 22 1 39 27 17 27
-4 0 -8 -4 -8 -9z"/>
<path d="M3447 973 c-12 -12 -7 -21 16 -26 20 -6 21 -5 4 7 -14 11 -15 15 -5
19 7 3 8 6 2 6 -6 1 -14 -2 -17 -6z"/>
<path d="M3540 964 c-23 -13 -24 -14 -4 -14 12 0 27 7 34 15 15 18 4 18 -30
-1z"/>
<path d="M1455 960 c-18 -8 -17 -9 8 -9 15 -1 27 4 27 9 0 12 -8 12 -35 0z"/>
<path d="M2350 960 c0 -5 5 -10 11 -10 5 0 7 5 4 10 -3 6 -8 10 -11 10 -2 0
-4 -4 -4 -10z"/>
<path d="M2660 958 c0 -4 12 -8 27 -8 14 0 23 3 19 7 -10 10 -46 11 -46 1z"/>
</g>
</svg>
